<svg width="131" height="108" viewBox="0 0 131 108" fill="none" xmlns="http://www.w3.org/2000/svg">
<path d="M128.17 35.6625C129.165 34.7906 130.645 35.6063 130.645 36.9844V94.5C130.645 101.953 125.159 108 118.397 108H12.248C5.48608 108 0 101.953 0 94.5V37.0125C0 35.6063 1.45445 34.8187 2.47511 35.6906C8.19084 40.5844 15.7693 46.8 41.7962 67.6406C47.1803 71.9719 56.2642 81.0844 65.3226 81.0281C74.432 81.1125 83.6945 71.8031 88.8744 67.6406C114.901 46.8 122.454 40.5563 128.17 35.6625ZM65.3226 72C71.2424 72.1125 79.765 63.7875 84.0518 60.3563C117.912 33.2719 120.49 30.9094 128.298 24.1594C129.778 22.8937 130.645 20.925 130.645 18.8438V13.5C130.645 6.04688 125.159 0 118.397 0H12.248C5.48608 0 0 6.04688 0 13.5V18.8438C0 20.925 0.867565 22.8656 2.34753 24.1594C10.1556 30.8812 12.7328 33.2719 46.5934 60.3563C50.8802 63.7875 59.4027 72.1125 65.3226 72Z" fill="#FF0009"/>
</svg>
