<svg width="98" height="108" viewBox="0 0 98 108" fill="none" xmlns="http://www.w3.org/2000/svg">
<path d="M73.5 54H24.5V67.5H73.5V54ZM96.2135 22.1484L71.2287 1.47656C70.0802 0.527344 68.5234 0 66.8901 0H65.3333V27H98V25.7133C98 24.3844 97.362 23.0977 96.2135 22.1484ZM57.1667 28.6875V0H6.125C2.73073 0 0 2.25703 0 5.0625V102.938C0 105.743 2.73073 108 6.125 108H91.875C95.2693 108 98 105.743 98 102.938V33.75H63.2917C59.9229 33.75 57.1667 31.4719 57.1667 28.6875ZM16.3333 15.1875C16.3333 14.2552 17.247 13.5 18.375 13.5H38.7917C39.9197 13.5 40.8333 14.2552 40.8333 15.1875V18.5625C40.8333 19.4948 39.9197 20.25 38.7917 20.25H18.375C17.247 20.25 16.3333 19.4948 16.3333 18.5625V15.1875ZM16.3333 28.6875C16.3333 27.7552 17.247 27 18.375 27H38.7917C39.9197 27 40.8333 27.7552 40.8333 28.6875V32.0625C40.8333 32.9948 39.9197 33.75 38.7917 33.75H18.375C17.247 33.75 16.3333 32.9948 16.3333 32.0625V28.6875ZM81.6667 92.8125C81.6667 93.7448 80.753 94.5 79.625 94.5H59.2083C58.0803 94.5 57.1667 93.7448 57.1667 92.8125V89.4375C57.1667 88.5052 58.0803 87.75 59.2083 87.75H79.625C80.753 87.75 81.6667 88.5052 81.6667 89.4375V92.8125ZM81.6667 50.625V70.875C81.6667 72.7397 79.8394 74.25 77.5833 74.25H20.4167C18.1606 74.25 16.3333 72.7397 16.3333 70.875V50.625C16.3333 48.7603 18.1606 47.25 20.4167 47.25H77.5833C79.8394 47.25 81.6667 48.7603 81.6667 50.625Z" fill="#FF0009"/>
</svg>
