<svg width="180" height="98" viewBox="0 0 180 98" fill="none" xmlns="http://www.w3.org/2000/svg">
<path d="M122.259 0H98.1C95.85 0 93.6844 0.765348 92.025 2.14297L64.3781 25.1034C64.35 25.1289 64.3219 25.1799 64.2937 25.2054C59.625 29.1852 59.7094 35.5376 63.7031 39.4919C67.275 43.038 74.7844 43.982 79.4812 40.1807C79.5094 40.1552 79.5656 40.1552 79.5937 40.1297L102.066 21.4552C103.894 19.9501 106.762 20.0521 108.422 21.7104C110.109 23.3686 109.969 25.9453 108.141 27.476L100.8 33.5732L141.75 63.7279C142.566 64.3402 143.297 65.0035 143.972 65.6923V16.3274L128.616 2.39809C126.956 0.867394 124.65 0 122.259 0V0ZM153 16.3784V73.4989C153 78.0144 157.022 81.6626 162 81.6626H180V16.3784H153ZM166.5 73.4989C164.025 73.4989 162 71.662 162 69.417C162 67.172 164.025 65.3352 166.5 65.3352C168.975 65.3352 171 67.172 171 69.417C171 71.662 168.975 73.4989 166.5 73.4989ZM0 81.6371H18C22.9781 81.6371 27 77.9889 27 73.4733V16.3784H0V81.6371ZM13.5 65.3352C15.975 65.3352 18 67.172 18 69.417C18 71.662 15.975 73.4989 13.5 73.4989C11.025 73.4989 9 71.662 9 69.417C9 67.1465 11.025 65.3352 13.5 65.3352ZM136.097 70.0803L94.1063 39.1603L85.6688 46.176C77.3156 53.0896 64.5187 52.4263 57.0656 45.0535C49.5 37.553 50.0906 25.9453 58.3031 19.1082L81.3094 0H57.7406C55.35 0 53.0719 0.867394 51.3844 2.39809L36 16.3274V73.4478H41.1469L66.6 94.3418C74.3063 100.031 85.6406 98.9594 91.9125 91.9692L91.9687 91.9182L97.0031 95.8725C101.475 99.189 108.084 98.5512 111.713 94.4949L120.544 84.6474L122.062 85.7699C125.916 88.6017 131.597 88.0915 134.719 84.5709L137.391 81.586C140.541 78.0654 139.95 72.9376 136.097 70.0803V70.0803Z" fill="#FF0009"/>
</svg>
