<svg width="75" height="103" viewBox="0 0 75 103" fill="none" xmlns="http://www.w3.org/2000/svg">
<path d="M33.6461 100.922C5.26758 58.5472 0 54.1983 0 38.625C0 17.2929 16.7893 0 37.5 0C58.2107 0 75 17.2929 75 38.625C75 54.1983 69.7324 58.5472 41.3539 100.922C39.4916 103.693 35.5082 103.693 33.6461 100.922ZM37.5 54.7187C46.1295 54.7187 53.125 47.5134 53.125 38.625C53.125 29.7366 46.1295 22.5312 37.5 22.5312C28.8705 22.5312 21.875 29.7366 21.875 38.625C21.875 47.5134 28.8705 54.7187 37.5 54.7187Z" fill="#FF0009"/>
</svg>
