<svg xmlns="http://www.w3.org/2000/svg" xmlns:xlink="http://www.w3.org/1999/xlink" viewBox="0 0 1398 1745.65"><defs><style>.cls-1{fill:url(#Gradiente_sem_nome_30);}.cls-2{fill:none;stroke:#1d1d1b;stroke-miterlimit:10;stroke-width:20px;}</style><radialGradient id="Gradiente_sem_nome_30" cx="756.81" cy="894.77" r="800.53" gradientTransform="translate(0 -108.87) scale(1 1.12)" gradientUnits="userSpaceOnUse"><stop offset="0.8" stop-color="#ae1921"/><stop offset="0.9" stop-color="#7e1519"/><stop offset="1" stop-color="#4d1011"/></radialGradient></defs><title>Prancheta 1</title><g id="Camada_3" data-name="Camada 3"><path class="cls-1" d="M300.05,1456.82s-79.26-63.76-99.79-46.64-71.87,58.18,35.94,133.47,521.93,308,908.67,85.57,192.4-596.51,70.5-752.95C1105.76,735.6,758.13,362.89,758.13,362.89S601.19,97.05,1038.77,191.77c0,0,116.85,62.29,196.62,123.51,118.73,91.12,106.16,25.49,81-16.88-33.75-56.81-248-272.53-588.84-225.28S114.93,288.28,141.93,585.27s489.35,698.6,489.35,698.6,202.5,192.36,64.13,253.11S300.05,1456.82,300.05,1456.82Z"/><path class="cls-2" d="M170.05,1425.61S90.79,1361.85,70.26,1379s-71.88,58.18,35.93,133.47,521.93,308,908.67,85.57,192.4-596.51,70.5-752.95C975.76,704.39,628.12,331.68,628.12,331.68S350.9,16.81,908.77,160.56c0,0,127.5,33.22,176.59,121,66,118,43.58-47.07,18.41-89.44C1070,135.28,938.4-5.34,597.53,41.91S37.3,257.9,64.3,554.89,611,1334.49,611,1334.49s185.62,185.62,47.25,246.37S170.05,1425.61,170.05,1425.61Z"/></g></svg>