<svg xmlns="http://www.w3.org/2000/svg" xmlns:xlink="http://www.w3.org/1999/xlink" viewBox="0 0 2000 741.52"><defs><style>.cls-1{fill:none;}.cls-2{fill:#fff;}.cls-3{fill:#010101;stroke:#fff;stroke-miterlimit:10;stroke-width:7px;}.cls-4{fill:#a7191d;}.cls-5{clip-path:url(#clip-path);}.cls-6{fill:#641310;}.cls-7{fill:#671411;}.cls-8{fill:#6b1412;}.cls-9{fill:#6e1513;}.cls-10{fill:#711513;}.cls-11{fill:#741514;}.cls-12{fill:#761615;}.cls-13{fill:#791615;}.cls-14{fill:#7c1716;}.cls-15{fill:#7e1717;}.cls-16{fill:#811717;}.cls-17{fill:#831718;}.cls-18{fill:#851718;}.cls-19{fill:#871819;}.cls-20{fill:#891819;}.cls-21{fill:#8b1819;}.cls-22{fill:#8d181a;}.cls-23{fill:#8f181a;}.cls-24{fill:#91181b;}.cls-25{fill:#92181b;}.cls-26{fill:#94181b;}.cls-27{fill:#95191b;}.cls-28{fill:#97191c;}.cls-29{fill:#98191c;}.cls-30{fill:#99191c;}.cls-31{fill:#9b191c;}.cls-32{fill:#9c191d;}.cls-33{fill:#9d191d;}.cls-34{fill:#9e191d;}.cls-35{fill:#9f191d;}.cls-36{fill:#a0191d;}.cls-37{fill:#a1191d;}.cls-38{fill:#a2191e;}.cls-39{fill:#a3191e;}.cls-40{fill:#a4191e;}.cls-41{fill:#a5191e;}.cls-42{fill:#a6191e;}.cls-43{fill:#a7191e;}.cls-44{fill:#a8191f;}.cls-45{fill:#a9191f;}.cls-46{fill:#aa191f;}.cls-47{fill:#ab191f;}.cls-48{fill:#ac191f;}.cls-49{fill:#ad191f;}.cls-50{fill:#ae191f;}</style><clipPath id="clip-path"><path class="cls-1" d="M1953,549.13s-59.78-60.44-126.75-7.57c0,0-43.22,35.36-5.09,78.64S1876,684.52,1876,684.52s9.51,26.24-11.75,25.85c-32.7-.6-37.49-8.49-46-15.28-7.36-5.85-18.12-2,3,11s75.59,34.73,124.94,1.05-11.22-95.57-11.22-95.57-73.25-72.11-47.87-74.1c0,0,28.74.11,70,20.18C1957,557.62,1959.81,557.62,1953,549.13Z"/></clipPath></defs><title>logo-branco</title><g id="Camada_1" data-name="Camada 1"><g id="traçado_branco" data-name="traçado branco"><path class="cls-2" d="M1713.78,368.28S1914.86,404,1907.39,512.44c0,0-60.18-30.33-83.51-31.26,0,0,104.5,44.79,117.57,76.51l-28.93-40.55S1935.85,397.21,1713.78,368.28Z"/><polyline class="cls-2" points="1696.99 494.24 1654.07 517.14 1515.98 524.66 1647.54 509.45 1696.99 494.24"/><path class="cls-2" d="M1539.3,315.56s-2.1,83.23,144.86,70.33V279.18s18-4.2,12.83-12.6-82.11-149.76-401.21-188.94c0,0-110.57-19.6-109.17,60.18s0,347.09,0,347.09,9.81,38.72,8.41-4.66,0-354.33,0-354.33,22.39-56.21,102.63-43.15S1586,122.89,1690.46,267.05c0,0-8.28,12.71-26.94,11.78s-86.78.35-86.78.35-18.78,2.33-.11,4.19,100.88,0,100.88,0l1,96.22S1560.76,402.8,1539.3,315.56Z"/><path class="cls-2" d="M1279.92,260.05l204.33,4.66s7.47-7.46,7.47,34.53v181a350,350,0,0,1-7.35-70.91c0-39.19-.28-136.95-.28-136.95S1320.41,270.84,1279.92,260.05Z"/><path class="cls-2" d="M1073.43,195.88c-23.18,0-42-20.37-42-45.4s18.86-45.4,42-45.4,42,20.37,42,45.4S1096.61,195.88,1073.43,195.88Zm0-83.8c-19.32,0-35,17.23-35,38.4s15.72,38.4,35,38.4,35-17.23,35-38.4S1092.75,112.08,1073.43,112.08Z"/><path class="cls-2" d="M724.87,251.88c-23.19,0-42-20.36-42-45.39s18.85-45.4,42-45.4,42,20.37,42,45.4S748.05,251.88,724.87,251.88Zm0-83.79c-19.33,0-35,17.23-35,38.4s15.71,38.39,35,38.39,35-17.22,35-38.39S744.19,168.09,724.87,168.09Z"/><path class="cls-2" d="M1140.89,154.61s10.7-18.19,25.41-19.59S1147.42,70.64,1132,67.84s-129.92-7-129.92-7S916.49,24.45,888.5,24.45,693,55.24,664.11,69.94s-11.43,19.59-11.43,19.59l-30.1,42s-2.6,19.94-1.27,35.84c1.62,19.44-.36,57.23,52.94,67S620.14,247.68,617,183.65s1.75-58.78,1.75-58.78l25.54-35.34s-17.85-10.14-4.2-18.19S846.52,13.72,889.9,18.85s116.17,36.86,116.17,36.86l126,5.13s16.79.94,30.79,33.13,18.66,39.65,12.6,44.31S1140.89,154.61,1140.89,154.61Z"/><path class="cls-2" d="M499,496.9a39.77,39.77,0,0,1-5.93-.45,40.29,40.29,0,0,1-27.46-17.77,48,48,0,0,1,9.69-63.25,39.9,39.9,0,0,1,59,9,47,47,0,0,1,7.23,33.48h0C538,480.53,519.61,496.9,499,496.9Zm1.84-83.66a33.72,33.72,0,0,0-21.16,7.66,41,41,0,0,0-8.25,53.88,33.33,33.33,0,0,0,22.7,14.75c19.1,2.92,37.25-11.72,40.45-32.65h0a40,40,0,0,0-6.12-28.51,33.35,33.35,0,0,0-22.7-14.75A32.61,32.61,0,0,0,500.83,413.24Z"/><path class="cls-2" d="M146,499.49a39.11,39.11,0,0,1-6-.46,40.28,40.28,0,0,1-27.46-17.76,47,47,0,0,1-7.22-33.48c3.79-24.74,25.51-42,48.43-38.51a40.27,40.27,0,0,1,27.45,17.77,47,47,0,0,1,7.23,33.47h0a47,47,0,0,1-16.92,29.78A40.67,40.67,0,0,1,146,499.49Zm1.81-83.66c-17.22,0-32.64,13.88-35.58,33a40.07,40.07,0,0,0,6.12,28.51,32.9,32.9,0,0,0,48.79,7.47,40,40,0,0,0,14.37-25.37h0A40,40,0,0,0,175.43,431a33.35,33.35,0,0,0-22.7-14.75A32.37,32.37,0,0,0,147.85,415.83Z"/><path class="cls-2" d="M566,465.87s13.32-16.36,28.08-15.52-8.91-66.49-23.71-71.59S443,352.17,443,352.17,363.89,303.24,336.22,299s-197.87.84-228.69,11-14.27,17.64-14.27,17.64l-36.1,36.95s-5.59,19.31-6.69,35.23c-1.33,19.47-9,56.52,42.18,74.27S37.15,479,43.73,415.25s10.63-57.84,10.63-57.84L85,326.35s-16.1-12.73-1.39-18.62S296.35,282,338.46,293.68s109.24,54,109.24,54l123.73,24.14s16.46,3.47,25.42,37.41,12.44,42,5.74,45.71S566,465.87,566,465.87Z"/><path class="cls-2" d="M485,273.15a39.79,39.79,0,0,1-33.38-18.09,47,47,0,0,1-7.35-33.45c3.69-24.76,25.35-42.12,48.28-38.69s38.57,26.35,34.88,51.11a47.07,47.07,0,0,1-16.81,29.84A40.63,40.63,0,0,1,485,273.15Zm1.76-83.66c-17.27,0-32.71,14-35.57,33.16a40,40,0,0,0,6.23,28.48,32.89,32.89,0,0,0,48.81,7.29A40,40,0,0,0,520.46,233c3.13-20.94-9.88-40.29-29-43.15A31.83,31.83,0,0,0,486.72,189.49Z"/><path class="cls-2" d="M131.88,277.09a39.21,39.21,0,0,1-5.79-.43A40.29,40.29,0,0,1,98.57,259,48,48,0,0,1,108,195.71a40.23,40.23,0,0,1,31.48-8.85c22.92,3.42,38.57,26.35,34.88,51.1C171,260.63,152.56,277.09,131.88,277.09Zm1.79-83.67a33.75,33.75,0,0,0-21.26,7.74,41,41,0,0,0-8,53.91,33.3,33.3,0,0,0,22.76,14.66,31.85,31.85,0,0,0,4.75.36c17.27,0,32.71-14,35.57-33.16,3.13-20.94-9.88-40.3-29-43.15A32.28,32.28,0,0,0,133.67,193.42Z"/><path class="cls-2" d="M537.77,261.91s40.22-17,53.09-24.26c14.95-8.43,14.15-29.4-6.06-49.91C542.11,144.4,401,156,401,156s-86.15-39.25-113.84-43.38-118,13.06-148.82,23.32-73.24,14.46-73.24,14.46S45.6,165.75,44.56,181.67c-1.26,19.47-17.22,52.65,34.05,70.21s-50.18,9.45-43.85-54.35,36.39-56,36.39-56L113.61,135S258.53,97,300.68,108.43s104,41.52,104,41.52S539.54,142,588.06,183.07c26.8,22.67,19.53,54.76,12.84,58.48S537.77,261.91,537.77,261.91Z"/><path class="cls-2" d="M1082.06,446.22c-1.28,0-2.58-.06-3.88-.19-23.06-2.29-39.82-24.41-37.36-49.32s23.26-43.32,46.32-41A40.24,40.24,0,0,1,1115.5,372a47,47,0,0,1,9,33C1122.17,428.5,1103.53,446.22,1082.06,446.22Zm1.21-83.73c-17.93,0-33.51,15-35.48,34.91-2.09,21.07,11.86,39.76,31.08,41.66s36.57-13.68,38.66-34.75a40.06,40.06,0,0,0-7.62-28.15,33.36,33.36,0,0,0-23.46-13.52Q1084.85,362.49,1083.27,362.49Z"/><path class="cls-2" d="M729.72,467.58c-1.3,0-2.61-.06-3.92-.19C702.73,465.1,686,443,688.44,418.07a47,47,0,0,1,15.31-30.64,39.89,39.89,0,0,1,59.36,5.89A48,48,0,0,1,756.8,457,40.46,40.46,0,0,1,729.72,467.58Zm1.13-83.74a33.57,33.57,0,0,0-22.44,8.82,40,40,0,0,0-13,26.1c-2.09,21.07,11.85,39.76,31.08,41.66a33.3,33.3,0,0,0,25.65-8.65,40,40,0,0,0,13-26.1h0a40.11,40.11,0,0,0-7.63-28.15A33.36,33.36,0,0,0,734.06,384C733,383.9,731.92,383.84,730.85,383.84Z"/><path class="cls-2" d="M1136.25,432.34s39.33-19,51.82-26.85c14.52-9.16,12.68-30.06-8.52-49.56-44.77-41.17-185.15-22.61-185.15-22.61s-88-34.95-115.84-37.71-117.25,18.87-147.48,30.64-72.44,18.06-72.44,18.06-18.72,16.28-19,32.23c-.3,19.52-14.6,53.44,37.47,68.45s-49.66,11.91-46.48-52.12,33.59-57.71,33.59-57.71l42.07-8.62s142.87-45.18,185.54-35.79,106,36.33,106,36.33,134.27-14.58,184.75,24c27.89,21.32,22.21,53.73,15.71,57.78S1136.25,432.34,1136.25,432.34Z"/></g><path class="cls-3" d="M156.12,723.88c-23.09,0-42.46-5.25-58.11-16.54-26.32-18.91-42-49.63-42-83.24a102.82,102.82,0,0,1,27.56-70.38c18.38-19.69,42-29.41,71.27-29.41,27.56,0,56.11,7.62,82.19,22.85l-33,67.22c-11.42-4.46-22.1-6.83-32.78-6.83-16.63,0-25.57,5.78-25.57,14.45,0,9.19,8.94,14.7,25.57,14.7,10.43,0,21.11-2.63,32.78-7.09l33,72.48C213,716.53,185.42,723.88,156.12,723.88Z"/><path class="cls-3" d="M238.06,527.46H389.28v48.06H319.75v23.11h48.67v48H319.75v23.63h69.53v50.42H238.06Z"/><path class="cls-3" d="M583,615.69v105H526.59c-38.48,0-67.78-.26-91.62-15.76-26.32-17.33-41.22-45.42-41.22-80.35a102.78,102.78,0,0,1,27.56-70.37c19.87-21,43.95-29.67,77-29.67,30.54,0,59.59,8.92,89.64,26.78l-40,57.51c-16.89-8.67-31.78-13.13-45.44-13.13-18.62,0-30.05,10.76-30.05,26.52,0,14.18,9.19,23.63,24.59,23.63a24.4,24.4,0,0,0,4.22-.26V615.69Z"/><path class="cls-3" d="M617.48,553.46a93.68,93.68,0,0,1,135.82,0,102.61,102.61,0,0,1,0,141c-18.13,18.91-42.21,29.41-68,29.41s-49.41-10.5-67.78-29.41a100.14,100.14,0,0,1-28.31-70.37A101.88,101.88,0,0,1,617.48,553.46Zm67.78,90.07c10.43,0,18.38-8.67,18.38-19.43s-8.2-19.43-18.38-19.43c-10.43,0-18.37,8.66-18.37,19.43S675.08,643.53,685.26,643.53Z"/><path class="cls-3" d="M788.31,720.73V527.46h59.1l43.2,62.5v-62.5h79.46V720.73H907L870,664v56.72Z"/><path class="cls-3" d="M985,527.46h81.7v69.33h40.22V527.46h81.44V720.73h-81.44v-73h-40.22v73H985Z"/><path class="cls-3" d="M1203.24,527.46h151.22v48.06h-69.53v23.11h48.67v48h-48.67v23.63h69.53v50.42H1203.24Z"/><path class="cls-3" d="M1368.61,527.46h82.44V720.73h-82.44Z"/><path class="cls-3" d="M1468.43,720.73V527.46h115c25.33,0,43.21,2.37,57.61,17.07,9.69,10,15.15,23.64,15.15,38.87,0,17.33-7.7,33.34-21.36,43.58,17.38,23.11,29.3,54.1,32.78,93.75h-84.92c0-46.74-10.93-72-32.53-74.58v74.58Zm81.69-119.48h2.48c15.15,0,22.85-6.56,22.85-18.38,0-11-8-17.86-22.85-17.86h-2.48Z"/><path class="cls-3" d="M1685.45,553.46a93.69,93.69,0,0,1,135.83,0,102.63,102.63,0,0,1,0,141c-18.13,18.91-42.22,29.41-68,29.41s-49.41-10.5-67.79-29.41a100.18,100.18,0,0,1-28.31-70.37A101.92,101.92,0,0,1,1685.45,553.46Zm67.79,90.07c10.43,0,18.37-8.67,18.37-19.43s-8.19-19.43-18.37-19.43c-10.43,0-18.38,8.66-18.38,19.43S1743.06,643.53,1753.24,643.53Z"/><path class="cls-2" d="M52.56,524.66v-147h76.7c17,0,33.46.93,47.48,12.22,11.8,9.5,18.31,23.62,18.31,39.74,0,30.91-21.56,53.34-51.26,53.34a51,51,0,0,1-16.62-2.69v44.35Z"/><path class="cls-2" d="M62.7,514.52V387.84h66.56c17.17,0,30.22,1.2,41.12,10,9.41,7.57,14.53,18.59,14.53,31.84,0,25.13-16.84,43.21-41.12,43.21a39.33,39.33,0,0,1-26.76-10v51.64ZM117,441h1.82c10.9,0,16.51-4.65,16.51-13.08,0-7.75-5.61-12.74-16.18-12.74H117Z"/><path class="cls-2" d="M242.09,526.72a73.15,73.15,0,0,1-52.31-22.29A75.38,75.38,0,0,1,168,451.17a76.18,76.18,0,0,1,21.7-53.37,73.08,73.08,0,0,1,104.86,0,76.7,76.7,0,0,1,0,106.58A72.81,72.81,0,0,1,242.09,526.72Z"/><path class="cls-2" d="M197,404.87a63,63,0,0,1,90.34,0,66.57,66.57,0,0,1,0,92.44,62.69,62.69,0,0,1-45.25,19.28c-17.18,0-32.87-6.89-45.09-19.28a65.16,65.16,0,0,1-18.82-46.13A66.33,66.33,0,0,1,197,404.87Zm45.09,59.05c6.93,0,12.22-5.68,12.22-12.74a12.46,12.46,0,0,0-12.22-12.74c-6.94,0-12.22,5.68-12.22,12.74A12.46,12.46,0,0,0,242.09,463.92Z"/><path class="cls-2" d="M371.2,524.66V514.52a128.32,128.32,0,0,0-1.36-19.36v29.5H295.23v-147h86.6c15.9,0,32.51,1.09,45.51,14.17a46,46,0,0,1,13,32.63,45.42,45.42,0,0,1-11,30c10.29,16.33,16.53,36.17,18.58,59.13l1,11Z"/><path class="cls-2" d="M305.37,514.52V387.84h76.46c16.85,0,28.74,1.54,38.32,11.18a35.82,35.82,0,0,1,10.07,25.48A35.17,35.17,0,0,1,416,453.07c11.56,15.15,19.49,35.46,21.8,61.45H381.34c0-30.64-7.27-47.17-21.64-48.88v48.88Zm54.33-78.31h1.66c10.07,0,15.19-4.31,15.19-12.06,0-7.23-5.28-11.7-15.19-11.7H359.7Z"/><polygon class="cls-2" points="446.55 524.66 446.55 453.74 419.79 453.74 419.79 377.7 547.91 377.7 547.91 453.74 521.49 453.74 521.49 524.66 446.55 524.66"/><path class="cls-2" d="M456.69,514.52V443.6H429.93V387.84H537.77V443.6H511.35v70.92Z"/><polygon class="cls-2" points="616.36 524.66 609.59 502.8 586.11 502.8 579.51 524.66 503.09 524.66 553.86 377.7 641.4 377.7 693.52 524.66 616.36 524.66"/><path class="cls-2" d="M561.08,387.84h73.16l44.92,126.68H623.84l-6.77-21.86H578.59L572,514.52H517.32Zm46.24,75.21-9.24-29.95-9.42,29.95Z"/><polygon class="cls-2" points="664.11 524.66 664.11 377.7 738.72 377.7 738.72 470.99 785.62 470.99 785.62 524.66 664.11 524.66"/><path class="cls-2" d="M674.25,514.52V387.84h54.33v93.29h46.9v33.39Z"/><path class="cls-2" d="M786.42,525.21v-147H842.8c15.84,0,32.22,0,46.63,7.51,24.71,12.78,39.47,37.44,39.47,66,0,23.73-10.47,45.42-28.72,59.49-12.59,9.8-26.5,14-46.49,14Z"/><path class="cls-2" d="M884.74,394.75c21.31,11,34,32.37,34,57,0,20.48-8.91,39.24-24.77,51.47-11.72,9.12-24.11,11.87-40.3,11.87H796.56V388.39H842.8C859.14,388.39,872.85,388.56,884.74,394.75Zm-34.84,68h1.65c11.39,0,17.34-5,17.34-13.76,0-8.27-6.11-13.09-17.34-13.09H849.9Z"/><path class="cls-2" d="M980.73,527.28A73.16,73.16,0,0,1,928.42,505a75.37,75.37,0,0,1-21.74-53.25,76.14,76.14,0,0,1,21.7-53.37,73.06,73.06,0,0,1,104.86,0,76.72,76.72,0,0,1,0,106.57A72.82,72.82,0,0,1,980.73,527.28Z"/><path class="cls-2" d="M935.64,405.43a62.94,62.94,0,0,1,90.34,0,66.56,66.56,0,0,1,0,92.43,62.69,62.69,0,0,1-45.25,19.28c-17.18,0-32.87-6.89-45.09-19.28a65.16,65.16,0,0,1-18.82-46.13A66.29,66.29,0,0,1,935.64,405.43Zm45.09,59c6.93,0,12.22-5.68,12.22-12.74A12.46,12.46,0,0,0,980.73,439c-6.94,0-12.22,5.68-12.22,12.74A12.46,12.46,0,0,0,980.73,464.47Z"/><path class="cls-2" d="M1093.72,527.28c-21.38,0-40.2-3.66-57.53-11.17l-8.46-3.66,18.08-55.83c-6.73-7.45-10.61-16.74-10.61-29.5,0-24.63,17.24-50.94,65.62-50.94a163.61,163.61,0,0,1,55.93,9.88l9.55,3.42-18.15,50.81c10.63,8.25,17,19,17,35.54C1165.13,491.3,1158.17,527.28,1093.72,527.28Z"/><path class="cls-2" d="M1053.92,464.47c10.74,14.11,22,20.82,30.72,20.82,4.95,0,8.75-3.61,8.75-7.57,0-6.2-7.76-7.91-19.49-13.77-19.32-9.64-28.56-18.59-28.56-36.83,0-24.62,19.81-40.8,55.48-40.8a154.28,154.28,0,0,1,52.52,9.29l-14.21,39.76c-9.41-13.25-21.13-20-30.22-20-5.44,0-8.58,2.75-8.58,6.54,0,7.58,8.91,9.64,23.62,16.18,20.8,9.29,31,18.59,31,37.7,0,26.33-20.81,41.31-61.27,41.31-19.32,0-36.83-3.1-53.5-10.33Z"/><path class="cls-4" d="M62.7,514.52V387.83h66.57c17.19,0,30.24,1.21,41.14,10,9.41,7.57,14.53,18.59,14.53,31.84,0,25.13-16.84,43.21-41.13,43.21a39.31,39.31,0,0,1-26.76-10v51.64ZM117.05,441h1.82c10.9,0,16.52-4.65,16.52-13.08,0-7.75-5.62-12.74-16.19-12.74h-2.15Z"/><path class="cls-4" d="M197,404.87a63,63,0,0,1,90.36,0,66.57,66.57,0,0,1,0,92.44,62.71,62.71,0,0,1-45.27,19.28c-17.18,0-32.87-6.89-45.09-19.28a65.13,65.13,0,0,1-18.84-46.13A66.29,66.29,0,0,1,197,404.87Zm45.09,59.05c6.94,0,12.23-5.69,12.23-12.74a12.46,12.46,0,0,0-12.23-12.74c-6.93,0-12.22,5.68-12.22,12.74A12.47,12.47,0,0,0,242.1,463.92Z"/><path class="cls-4" d="M305.37,514.52V387.83h76.49c16.85,0,28.74,1.55,38.32,11.19a35.83,35.83,0,0,1,10.08,25.48,35.16,35.16,0,0,1-14.21,28.57c11.56,15.15,19.49,35.46,21.81,61.45h-56.5c0-30.64-7.27-47.16-21.64-48.88v48.88Zm54.35-78.32h1.65c10.08,0,15.2-4.3,15.2-12.05,0-7.23-5.29-11.7-15.2-11.7h-1.65Z"/><path class="cls-4" d="M456.69,514.52V443.6H429.93V387.83H537.8V443.6H511.37v70.92Z"/><path class="cls-4" d="M561.09,387.83h73.18l44.94,126.69H623.87l-6.78-21.86H578.6L572,514.52H517.32Zm46.26,75.22L598.1,433.1l-9.42,29.95Z"/><path class="cls-4" d="M674.25,514.52V387.83H728.6v93.3h46.91v33.39Z"/><path class="cls-4" d="M884.77,394.75c21.31,11,34,32.36,34,57,0,20.48-8.92,39.25-24.78,51.47-11.73,9.12-24.12,11.87-40.31,11.87H796.56V388.38h46.25C859.16,388.38,872.87,388.56,884.77,394.75Zm-34.86,68h1.65c11.4,0,17.35-5,17.35-13.78,0-8.26-6.11-13.08-17.35-13.08h-1.65Z"/><path class="cls-4" d="M935.65,405.42a63,63,0,0,1,90.36,0,66.55,66.55,0,0,1,0,92.44,62.69,62.69,0,0,1-45.26,19.28c-17.18,0-32.88-6.89-45.1-19.28a65.13,65.13,0,0,1-18.83-46.13A66.28,66.28,0,0,1,935.65,405.42Zm45.1,59.05c6.93,0,12.22-5.68,12.22-12.74A12.46,12.46,0,0,0,980.75,439c-6.94,0-12.23,5.68-12.23,12.74A12.46,12.46,0,0,0,980.75,464.47Z"/><path class="cls-4" d="M1053.93,464.47c10.73,14.11,22,20.82,30.72,20.82,5,0,8.76-3.61,8.76-7.57,0-6.2-7.77-7.92-19.49-13.77-19.33-9.64-28.58-18.59-28.58-36.84,0-24.61,19.82-40.79,55.5-40.79a154.58,154.58,0,0,1,52.53,9.29l-14.2,39.77c-9.42-13.26-21.15-20-30.23-20-5.46,0-8.59,2.75-8.59,6.54,0,7.57,8.92,9.64,23.62,16.18,20.81,9.29,31,18.59,31,37.7,0,26.33-20.81,41.31-61.28,41.31-19.33,0-36.84-3.1-53.52-10.33Z"/><g class="cls-5"><rect class="cls-6" x="1783" y="488.69" width="212.51" height="252.1"/><ellipse class="cls-6" cx="1885.47" cy="622.45" rx="92.01" ry="105.53"/><ellipse class="cls-7" cx="1885.47" cy="622.45" rx="91.42" ry="104.87"/><ellipse class="cls-8" cx="1885.47" cy="622.45" rx="90.84" ry="104.2"/><ellipse class="cls-9" cx="1885.47" cy="622.45" rx="90.25" ry="103.53"/><ellipse class="cls-10" cx="1885.47" cy="622.45" rx="89.67" ry="102.86"/><ellipse class="cls-11" cx="1885.47" cy="622.45" rx="89.09" ry="102.19"/><ellipse class="cls-12" cx="1885.47" cy="622.45" rx="88.5" ry="101.52"/><ellipse class="cls-13" cx="1885.47" cy="622.45" rx="87.92" ry="100.85"/><ellipse class="cls-14" cx="1885.47" cy="622.45" rx="87.34" ry="100.18"/><ellipse class="cls-15" cx="1885.47" cy="622.45" rx="86.75" ry="99.51"/><ellipse class="cls-16" cx="1885.47" cy="622.45" rx="86.17" ry="98.84"/><ellipse class="cls-17" cx="1885.47" cy="622.45" rx="85.59" ry="98.17"/><ellipse class="cls-18" cx="1885.47" cy="622.45" rx="85" ry="97.5"/><ellipse class="cls-19" cx="1885.47" cy="622.45" rx="84.42" ry="96.83"/><ellipse class="cls-20" cx="1885.47" cy="622.45" rx="83.83" ry="96.16"/><ellipse class="cls-21" cx="1885.47" cy="622.45" rx="83.25" ry="95.49"/><ellipse class="cls-22" cx="1885.47" cy="622.45" rx="82.67" ry="94.82"/><ellipse class="cls-23" cx="1885.47" cy="622.45" rx="82.08" ry="94.15"/><ellipse class="cls-24" cx="1885.47" cy="622.45" rx="81.5" ry="93.48"/><ellipse class="cls-25" cx="1885.47" cy="622.45" rx="80.92" ry="92.82"/><ellipse class="cls-26" cx="1885.47" cy="622.45" rx="80.33" ry="92.15"/><ellipse class="cls-27" cx="1885.47" cy="622.45" rx="79.75" ry="91.48"/><ellipse class="cls-28" cx="1885.47" cy="622.45" rx="79.17" ry="90.81"/><ellipse class="cls-29" cx="1885.47" cy="622.45" rx="78.58" ry="90.14"/><ellipse class="cls-30" cx="1885.47" cy="622.45" rx="78" ry="89.47"/><ellipse class="cls-31" cx="1885.47" cy="622.45" rx="77.41" ry="88.8"/><ellipse class="cls-32" cx="1885.47" cy="622.45" rx="76.83" ry="88.13"/><ellipse class="cls-33" cx="1885.47" cy="622.45" rx="76.25" ry="87.46"/><ellipse class="cls-34" cx="1885.47" cy="622.45" rx="75.66" ry="86.79"/><ellipse class="cls-35" cx="1885.47" cy="622.45" rx="75.08" ry="86.12"/><ellipse class="cls-36" cx="1885.47" cy="622.45" rx="74.5" ry="85.45"/><ellipse class="cls-37" cx="1885.47" cy="622.45" rx="73.91" ry="84.78"/><ellipse class="cls-38" cx="1885.47" cy="622.45" rx="73.33" ry="84.11"/><ellipse class="cls-39" cx="1885.47" cy="622.45" rx="72.75" ry="83.44"/><ellipse class="cls-39" cx="1885.47" cy="622.45" rx="72.16" ry="82.77"/><ellipse class="cls-40" cx="1885.47" cy="622.45" rx="71.58" ry="82.1"/><ellipse class="cls-41" cx="1885.47" cy="622.45" rx="70.99" ry="81.43"/><ellipse class="cls-41" cx="1885.47" cy="622.45" rx="70.41" ry="80.77"/><ellipse class="cls-42" cx="1885.47" cy="622.45" rx="69.83" ry="80.1"/><ellipse class="cls-43" cx="1885.47" cy="622.45" rx="69.24" ry="79.43"/><ellipse class="cls-43" cx="1885.47" cy="622.45" rx="68.66" ry="78.76"/><ellipse class="cls-44" cx="1885.47" cy="622.45" rx="68.08" ry="78.09"/><ellipse class="cls-44" cx="1885.47" cy="622.45" rx="67.49" ry="77.42"/><ellipse class="cls-45" cx="1885.47" cy="622.45" rx="66.91" ry="76.75"/><ellipse class="cls-45" cx="1885.47" cy="622.45" rx="66.33" ry="76.08"/><ellipse class="cls-45" cx="1885.47" cy="622.45" rx="65.74" ry="75.41"/><ellipse class="cls-46" cx="1885.47" cy="622.45" rx="65.16" ry="74.74"/><ellipse class="cls-46" cx="1885.47" cy="622.45" rx="64.57" ry="74.07"/><ellipse class="cls-46" cx="1885.47" cy="622.45" rx="63.99" ry="73.4"/><ellipse class="cls-47" cx="1885.47" cy="622.45" rx="63.41" ry="72.73"/><ellipse class="cls-47" cx="1885.47" cy="622.45" rx="62.82" ry="72.06"/><ellipse class="cls-47" cx="1885.47" cy="622.45" rx="62.24" ry="71.39"/><ellipse class="cls-47" cx="1885.47" cy="622.45" rx="61.66" ry="70.72"/><ellipse class="cls-48" cx="1885.47" cy="622.45" rx="61.07" ry="70.05"/><ellipse class="cls-48" cx="1885.47" cy="622.45" rx="60.49" ry="69.38"/><ellipse class="cls-48" cx="1885.47" cy="622.45" rx="59.91" ry="68.72"/><ellipse class="cls-48" cx="1885.47" cy="622.45" rx="59.32" ry="68.05"/><ellipse class="cls-48" cx="1885.47" cy="622.45" rx="58.74" ry="67.38"/><ellipse class="cls-48" cx="1885.47" cy="622.45" rx="58.15" ry="66.71"/><ellipse class="cls-49" cx="1885.47" cy="622.45" rx="57.57" ry="66.04"/><ellipse class="cls-49" cx="1885.47" cy="622.45" rx="56.99" ry="65.37"/><ellipse class="cls-49" cx="1885.47" cy="622.45" rx="56.4" ry="64.7"/><ellipse class="cls-49" cx="1885.47" cy="622.45" rx="55.82" ry="64.03"/><ellipse class="cls-49" cx="1885.47" cy="622.45" rx="55.24" ry="63.36"/><ellipse class="cls-49" cx="1885.47" cy="622.45" rx="54.65" ry="62.69"/><ellipse class="cls-49" cx="1885.47" cy="622.45" rx="54.07" ry="62.02"/><ellipse class="cls-49" cx="1885.47" cy="622.45" rx="53.49" ry="61.35"/><ellipse class="cls-49" cx="1885.47" cy="622.45" rx="52.9" ry="60.68"/><ellipse class="cls-49" cx="1885.47" cy="622.45" rx="52.32" ry="60.01"/><ellipse class="cls-49" cx="1885.47" cy="622.45" rx="51.74" ry="59.34"/><ellipse class="cls-49" cx="1885.47" cy="622.45" rx="51.15" ry="58.67"/><ellipse class="cls-49" cx="1885.47" cy="622.45" rx="50.57" ry="58"/><ellipse class="cls-49" cx="1885.47" cy="622.45" rx="49.98" ry="57.33"/><ellipse class="cls-49" cx="1885.47" cy="622.45" rx="49.4" ry="56.67"/><ellipse class="cls-50" cx="1885.47" cy="622.45" rx="48.82" ry="56"/><ellipse class="cls-50" cx="1885.47" cy="622.45" rx="48.23" ry="55.33"/><ellipse class="cls-50" cx="1885.47" cy="622.45" rx="47.65" ry="54.66"/><ellipse class="cls-50" cx="1885.47" cy="622.45" rx="47.07" ry="53.99"/><ellipse class="cls-50" cx="1885.47" cy="622.45" rx="46.48" ry="53.32"/><ellipse class="cls-50" cx="1885.47" cy="622.45" rx="45.9" ry="52.65"/><ellipse class="cls-50" cx="1885.47" cy="622.45" rx="45.32" ry="51.98"/><ellipse class="cls-50" cx="1885.47" cy="622.45" rx="44.73" ry="51.31"/><ellipse class="cls-50" cx="1885.47" cy="622.45" rx="44.15" ry="50.64"/><ellipse class="cls-50" cx="1885.47" cy="622.45" rx="43.56" ry="49.97"/><ellipse class="cls-50" cx="1885.47" cy="622.45" rx="42.98" ry="49.3"/><ellipse class="cls-50" cx="1885.47" cy="622.45" rx="42.4" ry="48.63"/><ellipse class="cls-50" cx="1885.47" cy="622.45" rx="41.81" ry="47.96"/><ellipse class="cls-50" cx="1885.47" cy="622.45" rx="41.23" ry="47.29"/><ellipse class="cls-50" cx="1885.47" cy="622.45" rx="40.65" ry="46.62"/><ellipse class="cls-50" cx="1885.47" cy="622.45" rx="40.06" ry="45.95"/><ellipse class="cls-50" cx="1885.47" cy="622.45" rx="39.48" ry="45.28"/><ellipse class="cls-50" cx="1885.47" cy="622.45" rx="38.9" ry="44.61"/><ellipse class="cls-50" cx="1885.47" cy="622.45" rx="38.31" ry="43.95"/><ellipse class="cls-50" cx="1885.47" cy="622.45" rx="37.73" ry="43.28"/><ellipse class="cls-50" cx="1885.47" cy="622.45" rx="37.14" ry="42.61"/><ellipse class="cls-50" cx="1885.47" cy="622.45" rx="36.56" ry="41.94"/><ellipse class="cls-50" cx="1885.47" cy="622.45" rx="35.98" ry="41.27"/><ellipse class="cls-50" cx="1885.47" cy="622.45" rx="35.39" ry="40.6"/><ellipse class="cls-50" cx="1885.47" cy="622.45" rx="34.81" ry="39.93"/><ellipse class="cls-50" cx="1885.47" cy="622.45" rx="34.23" ry="39.26"/><ellipse class="cls-50" cx="1885.47" cy="622.45" rx="33.64" ry="38.59"/><ellipse class="cls-50" cx="1885.47" cy="622.45" rx="33.06" ry="37.92"/><ellipse class="cls-50" cx="1885.47" cy="622.45" rx="32.48" ry="37.25"/><ellipse class="cls-50" cx="1885.47" cy="622.45" rx="31.89" ry="36.58"/></g><path d="M1871.81,727a121.84,121.84,0,0,1-15.23-1,138.08,138.08,0,0,1-52.69-18.28c-9.28-5.68-14-10.9-13.76-15.11a4.4,4.4,0,0,1,2.71-3.84c2.6-1.15,6.25-.32,9.29,2.1,1.35,1.07,2.78,2.34,4.3,3.69,8.3,7.39,20.85,18.55,47.72,22,7,.9,15.93,1,18.68-3.85,4-7-5.41-21.8-9.38-26.92-.16-.22-11.87-16.48-49.44-59.14-20.27-23-20.09-45.15-16.38-59.67a69.17,69.17,0,0,1,13.08-26.21c14.21-17.19,31.12-26.41,50.23-27.35,40.2-2,75.67,32.76,77.16,34.24l.15.16c1,1.27,3.41,4.25,1.71,6.41-.55.7-2.22,2.83-11.49-1.51-40.08-19.52-60.31-18-60.51-18-2.62.21-3,1.25-3.15,1.65-3.56,9.59,32,50.3,55.26,73.71,1.4,1.43,34.11,35.25,31,67.21-1.25,12.63-8,23.2-20,31.42A103.08,103.08,0,0,1,1871.81,727Zm-76.41-34.71a2.34,2.34,0,0,0-.94.16c-.3.13-.33.26-.34.45-.1,1.49,2.29,5.58,11.86,11.42a133.75,133.75,0,0,0,51.11,17.73c26.45,3.37,50.56-2.23,71.66-16.63,11-7.51,17.17-17.1,18.29-28.51,3-30.11-29.49-63.67-29.82-64-.14-.15-15.47-15.61-30-32.63-30-35.2-27.14-42.79-26.21-45.28.65-1.75,2.31-3.91,6.56-4.24.83-.08,21.33-1.71,62.58,18.37a34,34,0,0,0,5.58,2.07l-.57-.76c-1.87-1.81-36.54-34.88-74.08-33-17.94.89-33.88,9.62-47.37,25.95a66.23,66.23,0,0,0-12.29,24.76c-5,19.71.24,38.51,15.54,55.89,37.76,42.86,49.53,59.23,49.65,59.39,1.58,2,15.67,20.76,9.64,31.3-3.09,5.4-10.71,7.36-22.66,5.83-28.1-3.61-41.2-15.27-49.87-23-1.54-1.37-2.87-2.55-4.13-3.55A7.07,7.07,0,0,0,1795.4,692.32Z"/><path class="cls-2" d="M1871.81,727a121.84,121.84,0,0,1-15.23-1,138.08,138.08,0,0,1-52.69-18.28c-9.28-5.68-14-10.9-13.76-15.11a4.4,4.4,0,0,1,2.71-3.84c2.6-1.15,6.25-.32,9.29,2.1,1.35,1.07,2.78,2.34,4.3,3.69,8.3,7.39,20.85,18.55,47.72,22,7,.9,15.93,1,18.68-3.85,4-7-5.41-21.8-9.38-26.92-.16-.22-11.87-16.48-49.44-59.14-20.27-23-20.09-45.15-16.38-59.67a69.17,69.17,0,0,1,13.08-26.21c14.21-17.19,31.12-26.41,50.23-27.35,40.2-2,75.67,32.76,77.16,34.24l.15.16c1,1.27,3.41,4.25,1.71,6.41-.55.7-2.22,2.83-11.49-1.51-40.08-19.52-60.31-18-60.51-18-2.62.21-3,1.25-3.15,1.65-3.56,9.59,32,50.3,55.26,73.71,1.4,1.43,34.11,35.25,31,67.21-1.25,12.63-8,23.2-20,31.42A103.08,103.08,0,0,1,1871.81,727Zm-76.41-34.71a2.34,2.34,0,0,0-.94.16c-.3.13-.33.26-.34.45-.1,1.49,2.29,5.58,11.86,11.42a133.75,133.75,0,0,0,51.11,17.73c26.45,3.37,50.56-2.23,71.66-16.63,11-7.51,17.17-17.1,18.29-28.51,3-30.11-29.49-63.67-29.82-64-.14-.15-15.47-15.61-30-32.63-30-35.2-27.14-42.79-26.21-45.28.65-1.75,2.31-3.91,6.56-4.24.83-.08,21.33-1.71,62.58,18.37a34,34,0,0,0,5.58,2.07l-.57-.76c-1.87-1.81-36.54-34.88-74.08-33-17.94.89-33.88,9.62-47.37,25.95a66.23,66.23,0,0,0-12.29,24.76c-5,19.71.24,38.51,15.54,55.89,37.76,42.86,49.53,59.23,49.65,59.39,1.58,2,15.67,20.76,9.64,31.3-3.09,5.4-10.71,7.36-22.66,5.83-28.1-3.61-41.2-15.27-49.87-23-1.54-1.37-2.87-2.55-4.13-3.55A7.07,7.07,0,0,0,1795.4,692.32Z"/><path class="cls-2" d="M1886.73,44.11a99.8,99.8,0,0,1,16.73-1.39c9.08,0,14.87,1.74,18.85,5.35a15.56,15.56,0,0,1,4.91,11.74c0,8.26-5.55,13.78-12,15.82v.24c4.67,1.75,7.6,6.27,9.12,12.16,2.19,8.77,3.69,14.94,5.05,17.54H1921c-1-1.78-2.41-6.9-4.23-14.75-1.94-8.52-5.44-11.87-12.91-12.2h-9v26.95h-8.13Zm8.13,28.23h9.68c9,0,14.55-4.58,14.55-11.62,0-8.4-6.62-11.58-15.13-11.58a39.52,39.52,0,0,0-9.1.83Z"/><path class="cls-2" d="M1905.56,142.4a64,64,0,1,1,64-64A64,64,0,0,1,1905.56,142.4Zm0-119.92a56,56,0,1,0,56,56A56,56,0,0,0,1905.56,22.48Z"/></g></svg>