<svg xmlns="http://www.w3.org/2000/svg" xmlns:xlink="http://www.w3.org/1999/xlink" viewBox="0 0 2000 741.52"><defs><style>.cls-1{fill:#fff;}.cls-11,.cls-12,.cls-2{fill:none;}.cls-11,.cls-12,.cls-2,.cls-3{stroke:#fff;stroke-miterlimit:10;}.cls-2,.cls-3{stroke-width:7px;}.cls-3{font-size:262.59px;fill:#010101;letter-spacing:-0.06em;}.cls-3,.cls-5,.cls-9{font-family:Humanist521BT-UltraBold, "Humanist 521 Ultra BT";font-weight:700;}.cls-4{letter-spacing:-0.1em;}.cls-5,.cls-9{font-size:172.13px;fill:#a7191d;}.cls-5{letter-spacing:-0.09em;}.cls-6{letter-spacing:-0.13em;}.cls-7{letter-spacing:-0.17em;}.cls-8{letter-spacing:-0.09em;}.cls-9{letter-spacing:-0.08em;}.cls-10{fill:url(#Gradiente_sem_nome_8);}.cls-11{stroke-width:4px;}.cls-12{stroke-width:8px;}</style><radialGradient id="Gradiente_sem_nome_8" cx="1885.47" cy="622.45" r="92.01" gradientTransform="translate(0 -91.53) scale(1 1.15)" gradientUnits="userSpaceOnUse"><stop offset="0.34" stop-color="#ae191f"/><stop offset="0.66" stop-color="#ac191f"/><stop offset="0.77" stop-color="#a5181d"/><stop offset="0.85" stop-color="#9a171b"/><stop offset="0.92" stop-color="#891617"/><stop offset="0.97" stop-color="#731413"/><stop offset="1" stop-color="#641310"/></radialGradient></defs><title>Prancheta 1</title><g id="Camada_1" data-name="Camada 1"><g id="traçado_branco" data-name="traçado branco"><path class="cls-1" d="M1713.78,368.28S1914.86,404,1907.39,512.44c0,0-60.18-30.33-83.51-31.26,0,0,104.5,44.79,117.57,76.51l-28.93-40.55S1935.85,397.21,1713.78,368.28Z"/><polyline class="cls-1" points="1696.99 494.24 1654.07 517.14 1515.98 524.66 1647.54 509.45 1696.99 494.24"/><path class="cls-1" d="M1539.3,315.56s-2.1,83.23,144.86,70.33V279.18s18-4.2,12.83-12.6-82.11-149.76-401.21-188.94c0,0-110.57-19.6-109.17,60.18s0,347.09,0,347.09,9.81,38.72,8.41-4.66,0-354.33,0-354.33,22.39-56.21,102.63-43.15S1586,122.89,1690.46,267.05c0,0-8.28,12.71-26.94,11.78s-86.78.35-86.78.35-18.78,2.33-.11,4.19,100.88,0,100.88,0l1,96.22S1560.76,402.8,1539.3,315.56Z"/><path class="cls-1" d="M1279.92,260.05l204.33,4.66s7.47-7.46,7.47,34.53v181a350,350,0,0,1-7.35-70.91c0-39.19-.28-136.95-.28-136.95S1320.41,270.84,1279.92,260.05Z"/><ellipse class="cls-2" cx="1073.43" cy="150.48" rx="38.54" ry="41.9"/><ellipse class="cls-2" cx="724.87" cy="206.49" rx="38.54" ry="41.9"/><path class="cls-1" d="M1140.89,154.61s10.7-18.19,25.41-19.59S1147.42,70.64,1132,67.84s-129.92-7-129.92-7S916.49,24.45,888.5,24.45,693,55.24,664.11,69.94s-11.43,19.59-11.43,19.59l-30.1,42s-2.6,19.94-1.27,35.84c1.62,19.44-.36,57.23,52.94,67S620.14,247.68,617,183.65s1.75-58.78,1.75-58.78l25.54-35.34s-17.85-10.14-4.2-18.19S846.52,13.72,889.9,18.85s116.17,36.86,116.17,36.86l126,5.13s16.79.94,30.79,33.13,18.66,39.65,12.6,44.31S1140.89,154.61,1140.89,154.61Z"/><ellipse class="cls-2" cx="499.93" cy="451.57" rx="41.9" ry="38.54" transform="translate(-22.13 877.37) rotate(-81.29)"/><ellipse class="cls-2" cx="146.91" cy="454.16" rx="41.9" ry="38.54" transform="translate(-324.25 530.61) rotate(-81.29)"/><path class="cls-1" d="M566,465.87s13.32-16.36,28.08-15.52-8.91-66.49-23.71-71.59S443,352.17,443,352.17,363.89,303.24,336.22,299s-197.87.84-228.69,11-14.27,17.64-14.27,17.64l-36.1,36.95s-5.59,19.31-6.69,35.23c-1.33,19.47-9,56.52,42.18,74.27S37.15,479,43.73,415.25s10.63-57.84,10.63-57.84L85,326.35s-16.1-12.73-1.39-18.62S296.35,282,338.46,293.68s109.24,54,109.24,54l123.73,24.14s16.46,3.47,25.42,37.41,12.44,42,5.74,45.71S566,465.87,566,465.87Z"/><ellipse class="cls-2" cx="485.81" cy="227.82" rx="41.9" ry="38.54" transform="translate(188.77 674.67) rotate(-81.51)"/><ellipse class="cls-2" cx="132.8" cy="231.76" rx="41.9" ry="38.54" transform="translate(-116.03 328.88) rotate(-81.51)"/><path class="cls-1" d="M537.77,261.91s40.22-17,53.09-24.26c14.95-8.43,14.15-29.4-6.06-49.91C542.11,144.4,401,156,401,156s-86.15-39.25-113.84-43.38-118,13.06-148.82,23.32-73.24,14.46-73.24,14.46S45.6,165.75,44.56,181.67c-1.26,19.47-17.22,52.65,34.05,70.21s-50.18,9.45-43.85-54.35,36.39-56,36.39-56L113.61,135S258.53,97,300.68,108.43s104,41.52,104,41.52S539.54,142,588.06,183.07c26.8,22.67,19.53,54.76,12.84,58.48S537.77,261.91,537.77,261.91Z"/><ellipse class="cls-2" cx="1082.66" cy="400.85" rx="41.9" ry="38.54" transform="translate(576.99 1438.7) rotate(-84.34)"/><ellipse class="cls-2" cx="730.28" cy="422.21" rx="41.9" ry="38.54" transform="translate(238.1 1107.29) rotate(-84.34)"/><path class="cls-1" d="M1136.25,432.34s39.33-19,51.82-26.85c14.52-9.16,12.68-30.06-8.52-49.56-44.77-41.17-185.15-22.61-185.15-22.61s-88-34.95-115.84-37.71-117.25,18.87-147.48,30.64-72.44,18.06-72.44,18.06-18.72,16.28-19,32.23c-.3,19.52-14.6,53.44,37.47,68.45s-49.66,11.91-46.48-52.12,33.59-57.71,33.59-57.71l42.07-8.62s142.87-45.18,185.54-35.79,106,36.33,106,36.33,134.27-14.58,184.75,24c27.89,21.32,22.21,53.73,15.71,57.78S1136.25,432.34,1136.25,432.34Z"/></g><text class="cls-3" transform="translate(48.6 720.73) scale(0.95 1)">CEGONHEI<tspan class="cls-4" x="1485.99" y="0">RO</tspan></text><path class="cls-1" d="M52.56,524.66v-147h76.7c17,0,33.46.93,47.48,12.22,11.8,9.5,18.31,23.62,18.31,39.74,0,30.91-21.56,53.34-51.26,53.34a51,51,0,0,1-16.62-2.69v44.35Z"/><path class="cls-1" d="M62.7,514.52V387.84h66.56c17.17,0,30.22,1.2,41.12,10,9.41,7.57,14.53,18.59,14.53,31.84,0,25.13-16.84,43.21-41.12,43.21a39.33,39.33,0,0,1-26.76-10v51.64ZM117,441h1.82c10.9,0,16.51-4.65,16.51-13.08,0-7.75-5.61-12.74-16.18-12.74H117Z"/><path class="cls-1" d="M242.09,526.72a73.15,73.15,0,0,1-52.31-22.29A75.38,75.38,0,0,1,168,451.17a76.18,76.18,0,0,1,21.7-53.37,73.08,73.08,0,0,1,104.86,0,76.7,76.7,0,0,1,0,106.58A72.81,72.81,0,0,1,242.09,526.72Z"/><path class="cls-1" d="M197,404.87a63,63,0,0,1,90.34,0,66.57,66.57,0,0,1,0,92.44,62.69,62.69,0,0,1-45.25,19.28c-17.18,0-32.87-6.89-45.09-19.28a65.16,65.16,0,0,1-18.82-46.13A66.33,66.33,0,0,1,197,404.87Zm45.09,59.05c6.93,0,12.22-5.68,12.22-12.74a12.46,12.46,0,0,0-12.22-12.74c-6.94,0-12.22,5.68-12.22,12.74A12.46,12.46,0,0,0,242.09,463.92Z"/><path class="cls-1" d="M371.2,524.66V514.52a128.32,128.32,0,0,0-1.36-19.36v29.5H295.23v-147h86.6c15.9,0,32.51,1.09,45.51,14.17a46,46,0,0,1,13,32.63,45.42,45.42,0,0,1-11,30c10.29,16.33,16.53,36.17,18.58,59.13l1,11Z"/><path class="cls-1" d="M305.37,514.52V387.84h76.46c16.85,0,28.74,1.54,38.32,11.18a35.82,35.82,0,0,1,10.07,25.48A35.17,35.17,0,0,1,416,453.07c11.56,15.15,19.49,35.46,21.8,61.45H381.34c0-30.64-7.27-47.17-21.64-48.88v48.88Zm54.33-78.31h1.66c10.07,0,15.19-4.31,15.19-12.06,0-7.23-5.28-11.7-15.19-11.7H359.7Z"/><polygon class="cls-1" points="446.55 524.66 446.55 453.74 419.79 453.74 419.79 377.7 547.91 377.7 547.91 453.74 521.49 453.74 521.49 524.66 446.55 524.66"/><path class="cls-1" d="M456.69,514.52V443.6H429.93V387.84H537.77V443.6H511.35v70.92Z"/><polygon class="cls-1" points="616.36 524.66 609.59 502.8 586.11 502.8 579.51 524.66 503.09 524.66 553.86 377.7 641.4 377.7 693.52 524.66 616.36 524.66"/><path class="cls-1" d="M561.08,387.84h73.16l44.92,126.68H623.84l-6.77-21.86H578.59L572,514.52H517.32Zm46.24,75.21-9.24-29.95-9.42,29.95Z"/><polygon class="cls-1" points="664.11 524.66 664.11 377.7 738.72 377.7 738.72 470.99 785.62 470.99 785.62 524.66 664.11 524.66"/><path class="cls-1" d="M674.25,514.52V387.84h54.33v93.29h46.9v33.39Z"/><path class="cls-1" d="M786.42,525.21v-147H842.8c15.84,0,32.22,0,46.63,7.51,24.71,12.78,39.47,37.44,39.47,66,0,23.73-10.47,45.42-28.72,59.49-12.59,9.8-26.5,14-46.49,14Z"/><path class="cls-1" d="M884.74,394.75c21.31,11,34,32.37,34,57,0,20.48-8.91,39.24-24.77,51.47-11.72,9.12-24.11,11.87-40.3,11.87H796.56V388.39H842.8C859.14,388.39,872.85,388.56,884.74,394.75Zm-34.84,68h1.65c11.39,0,17.34-5,17.34-13.76,0-8.27-6.11-13.09-17.34-13.09H849.9Z"/><path class="cls-1" d="M980.73,527.28A73.16,73.16,0,0,1,928.42,505a75.37,75.37,0,0,1-21.74-53.25,76.14,76.14,0,0,1,21.7-53.37,73.06,73.06,0,0,1,104.86,0,76.72,76.72,0,0,1,0,106.57A72.82,72.82,0,0,1,980.73,527.28Z"/><path class="cls-1" d="M935.64,405.43a62.94,62.94,0,0,1,90.34,0,66.56,66.56,0,0,1,0,92.43,62.69,62.69,0,0,1-45.25,19.28c-17.18,0-32.87-6.89-45.09-19.28a65.16,65.16,0,0,1-18.82-46.13A66.29,66.29,0,0,1,935.64,405.43Zm45.09,59c6.93,0,12.22-5.68,12.22-12.74A12.46,12.46,0,0,0,980.73,439c-6.94,0-12.22,5.68-12.22,12.74A12.46,12.46,0,0,0,980.73,464.47Z"/><path class="cls-1" d="M1093.72,527.28c-21.38,0-40.2-3.66-57.53-11.17l-8.46-3.66,18.08-55.83c-6.73-7.45-10.61-16.74-10.61-29.5,0-24.63,17.24-50.94,65.62-50.94a163.61,163.61,0,0,1,55.93,9.88l9.55,3.42-18.15,50.81c10.63,8.25,17,19,17,35.54C1165.13,491.3,1158.17,527.28,1093.72,527.28Z"/><path class="cls-1" d="M1053.92,464.47c10.74,14.11,22,20.82,30.72,20.82,4.95,0,8.75-3.61,8.75-7.57,0-6.2-7.76-7.91-19.49-13.77-19.32-9.64-28.56-18.59-28.56-36.83,0-24.62,19.81-40.8,55.48-40.8a154.28,154.28,0,0,1,52.52,9.29l-14.21,39.76c-9.41-13.25-21.13-20-30.22-20-5.44,0-8.58,2.75-8.58,6.54,0,7.58,8.91,9.64,23.62,16.18,20.8,9.29,31,18.59,31,37.7,0,26.33-20.81,41.31-61.27,41.31-19.32,0-36.83-3.1-53.5-10.33Z"/><text class="cls-5" transform="translate(52.96 514.52) scale(0.96 1)">PO<tspan class="cls-6" x="252.86" y="0">R</tspan><tspan class="cls-7" x="384.88" y="0">T</tspan><tspan class="cls-8" x="483.86" y="0">AL</tspan></text><text class="cls-9" transform="translate(786.64 515.07) scale(0.96 1)">DOS</text><path class="cls-10" d="M1953,549.13s-59.78-60.44-126.75-7.57c0,0-43.22,35.36-5.09,78.64S1876,684.52,1876,684.52s9.51,26.24-11.75,25.85c-32.7-.6-37.49-8.49-46-15.28-7.36-5.85-18.12-2,3,11s75.59,34.73,124.94,1.05-11.22-95.57-11.22-95.57-73.25-72.11-47.87-74.1c0,0,28.74.11,70,20.18C1957,557.62,1959.81,557.62,1953,549.13Z"/><path class="cls-11" d="M1936.69,549.13s-71.57-71-124.47-7c0,0-34.83,40,3.29,83.25S1865,684.61,1865,684.61s30.47,39.33-11.13,34c-32.44-4.17-44.48-19.33-53-26.12-7.36-5.86-17.1.66,4,13.58s75.59,34.73,124.94,1.05-11.23-95.57-11.23-95.57-76.25-76.76-50.87-78.76c0,0,20.32-1.89,61.54,18.18C1929.32,551,1943.52,557.62,1936.69,549.13Z"/><path class="cls-1" d="M1886.73,44.11a99.8,99.8,0,0,1,16.73-1.39c9.08,0,14.87,1.74,18.85,5.35a15.56,15.56,0,0,1,4.91,11.74c0,8.26-5.55,13.78-12,15.82v.24c4.67,1.75,7.6,6.27,9.12,12.16,2.19,8.77,3.69,14.94,5.05,17.54H1921c-1-1.78-2.41-6.9-4.23-14.75-1.94-8.52-5.44-11.87-12.91-12.2h-9v26.95h-8.13Zm8.13,28.23h9.68c9,0,14.55-4.58,14.55-11.62,0-8.4-6.62-11.58-15.13-11.58a39.52,39.52,0,0,0-9.1.83Z"/><circle class="cls-12" cx="1905.56" cy="78.44" r="59.96"/></g></svg>