<svg width="115" height="92" viewBox="0 0 115 92" fill="none" xmlns="http://www.w3.org/2000/svg">
<path d="M40.25 46C52.9539 46 63.25 35.7039 63.25 23C63.25 10.2961 52.9539 0 40.25 0C27.5461 0 17.25 10.2961 17.25 23C17.25 35.7039 27.5461 46 40.25 46ZM56.35 51.75H53.3492C49.3602 53.5828 44.9219 54.625 40.25 54.625C35.5781 54.625 31.1578 53.5828 27.1508 51.75H24.15C10.8172 51.75 0 62.5672 0 75.9V83.375C0 88.1367 3.86328 92 8.625 92H71.875C76.6367 92 80.5 88.1367 80.5 83.375V75.9C80.5 62.5672 69.6828 51.75 56.35 51.75ZM114.389 28.6781L109.394 23.6289C108.567 22.7844 107.22 22.7844 106.375 23.6109L87.5438 42.2984L79.368 34.0688C78.5414 33.2242 77.1937 33.2242 76.3492 34.0508L71.3 39.0641C70.4555 39.8906 70.4555 41.2383 71.282 42.0828L85.9625 56.8711C86.7891 57.7156 88.1367 57.7156 88.9813 56.8891L114.371 31.6969C115.198 30.8523 115.216 29.5047 114.389 28.6781Z" fill="#FF0009"/>
</svg>
