<svg width="95" height="103" viewBox="0 0 95 103" fill="none" xmlns="http://www.w3.org/2000/svg">
<path d="M91.993 72.7834L71.2785 63.127C70.3936 62.7168 69.4101 62.6304 68.4761 62.8807C67.5421 63.1311 66.7082 63.7047 66.0998 64.5151L56.9262 76.7064C42.5291 69.3228 30.9428 56.7201 24.1547 41.0601L35.3627 31.0818C36.1093 30.4213 36.6378 29.5142 36.868 28.4978C37.0983 27.4814 37.0179 26.4111 36.6389 25.4489L27.7612 2.91723C27.3453 1.87999 26.6097 1.03311 25.6812 0.522638C24.7527 0.0121614 23.6895 -0.12992 22.6751 0.120893L3.4401 4.9491C2.46202 5.19478 1.58937 5.7938 0.964587 6.6484C0.339803 7.503 -0.00022531 8.56272 1.1201e-07 9.6546C1.1201e-07 61.2561 38.4514 103 85.8175 103C86.8217 103.001 87.7963 102.631 88.5824 101.951C89.3685 101.272 89.9194 100.322 90.1454 99.2581L94.5842 78.3359C94.8133 77.2271 94.6799 76.066 94.207 75.0526C93.7341 74.0392 92.9512 73.2368 91.993 72.7834Z" fill="#FF0009"/>
</svg>
