<svg xmlns="http://www.w3.org/2000/svg" xmlns:xlink="http://www.w3.org/1999/xlink" viewBox="0 0 2078.13 2000"><defs><style>.cls-1{font-size:188.33px;font-family:InteloAlt-Bold;font-weight:700;}.cls-1,.cls-7{fill:#3f3f3f;}.cls-2{letter-spacing:-0.01em;}.cls-3{letter-spacing:-0.01em;}.cls-4{letter-spacing:0em;}.cls-5{fill:url(#Gradiente_sem_nome_30);}.cls-6,.cls-8{fill:none;stroke-miterlimit:10;}.cls-6{stroke:#1d1d1b;stroke-width:20px;}.cls-8{stroke:#000;stroke-width:8px;}</style><radialGradient id="Gradiente_sem_nome_30" cx="756.81" cy="894.77" r="800.53" gradientTransform="translate(0 -108.87) scale(1 1.12)" gradientUnits="userSpaceOnUse"><stop offset="0.8" stop-color="#ae1921"/><stop offset="0.9" stop-color="#7e1519"/><stop offset="1" stop-color="#4d1011"/></radialGradient></defs><title>Prancheta 1</title><g id="Camada_3" data-name="Camada 3"><rect x="30.78" y="1784.74" width="1286.48" height="169.79"/><text class="cls-1" transform="translate(1342.58 1908.24) scale(0.97 1)"><tspan class="cls-2">s</tspan><tspan class="cls-3" x="87.57" y="0">y</tspan><tspan x="183.81" y="0">s</tspan><tspan class="cls-4" x="273.26" y="0">t</tspan><tspan x="351.79" y="0">ems</tspan></text><path class="cls-5" d="M300.05,1456.82s-79.26-63.76-99.79-46.64-71.87,58.18,35.94,133.47,521.93,308,908.67,85.57,192.4-596.51,70.5-752.95C1105.76,735.6,758.13,362.89,758.13,362.89S601.19,97.05,1038.77,191.77c0,0,116.85,62.29,196.62,123.51,118.73,91.12,106.16,25.49,81-16.88-33.75-56.81-248-272.53-588.84-225.28S114.93,288.28,141.93,585.27s489.35,698.6,489.35,698.6,202.5,192.36,64.13,253.11S300.05,1456.82,300.05,1456.82Z"/><path class="cls-6" d="M170.05,1425.61S90.79,1361.85,70.26,1379s-71.88,58.18,35.93,133.47,521.93,308,908.67,85.57,192.4-596.51,70.5-752.95C975.76,704.39,628.12,331.68,628.12,331.68S350.9,16.81,908.77,160.56c0,0,127.5,33.22,176.59,121,66,118,43.58-47.07,18.41-89.44C1070,135.28,938.4-5.34,597.53,41.91S37.3,257.9,64.3,554.89,611,1334.49,611,1334.49s185.62,185.62,47.25,246.37S170.05,1425.61,170.05,1425.61Z"/><path class="cls-7" d="M1464.88,1314.24s-99.56,20.25-165.37,276.74c0,0,28.28,18.56,74,0S1686.34,1393.63,1464.88,1314.24Zm-106.31,219.37c11.81-84.37,91.12-145.12,91.12-145.12,24.58-22.5,45.56-8.44,45.56,33.75S1346.76,1618,1358.57,1533.61Z"/><path class="cls-7" d="M1769.74,1498.73s-209.24,105.75-101.24-110.24c0,0,200.24-117,189-236.24S1619,1307.49,1610,1426.74s40.5,150.74,141.74,114.74S1769.74,1498.73,1769.74,1498.73ZM1788.87,1204c33.75-4.5-121.5,146.25-121.5,146.25S1755.12,1208.49,1788.87,1204Z"/><path d="M1955.7,1148.49a99.89,99.89,0,0,1,16.73-1.38c9.08,0,14.87,1.73,18.85,5.35a15.53,15.53,0,0,1,4.91,11.74c0,8.25-5.56,13.78-12,15.81v.24c4.67,1.76,7.6,6.27,9.12,12.16,2.19,8.77,3.69,14.95,5.05,17.54h-8.46c-1-1.78-2.41-6.9-4.23-14.75-1.94-8.52-5.44-11.87-12.91-12.19h-9V1210h-8.13Zm8.13,28.23h9.68c9,0,14.55-4.58,14.55-11.62,0-8.39-6.62-11.57-15.13-11.57a39.71,39.71,0,0,0-9.1.82Z"/><circle class="cls-8" cx="1974.53" cy="1182.82" r="59.96"/></g></svg>