<svg width="105" height="115" viewBox="0 0 105 115" fill="none" xmlns="http://www.w3.org/2000/svg">
<path d="M102.769 88.8693L78.7559 62.5701C74.0188 57.3821 66.944 56.3715 61.2432 59.4483L39.3831 35.5073V21.5604L13.1345 0L0.0102532 14.3736L19.6967 43.1208H32.4313L54.2914 67.0618C51.5025 73.3053 52.4048 81.0536 57.1418 86.2416L81.1552 112.541C84.1491 115.82 88.9887 115.82 91.9622 112.541L102.769 100.705C105.743 97.426 105.743 92.1258 102.769 88.8693ZM68.0309 50.5322C73.8343 50.5322 79.289 53.0026 83.3904 57.4944L87.3687 61.8514C90.6087 60.3017 93.6847 58.1457 96.3506 55.2261C103.959 46.8939 106.542 35.1704 104.123 24.525C103.671 22.5037 101.354 21.8074 100.001 23.2897L84.7438 39.999L70.8198 37.4612L68.5025 22.2117L83.7595 5.50239C85.1129 4.02012 84.4567 1.48228 82.5906 0.965726C72.8705 -1.66195 62.166 1.16785 54.5785 9.47759C48.7341 15.8783 45.9862 24.3228 46.1298 32.7449L62.9657 51.1835C64.6268 50.7568 66.3493 50.5322 68.0309 50.5322ZM46.7245 68.9483L35.0972 56.2142L3.845 90.4638C-1.28167 96.0785 -1.28167 105.174 3.845 110.789C8.97167 116.404 17.2769 116.404 22.4035 110.789L47.7498 83.03C46.1913 78.5607 45.7196 73.6871 46.7245 68.9483ZM13.1345 106.005C10.4276 106.005 8.21292 103.58 8.21292 100.615C8.21292 97.6282 10.4071 95.2251 13.1345 95.2251C15.8619 95.2251 18.0561 97.6282 18.0561 100.615C18.0561 103.58 15.8619 106.005 13.1345 106.005Z" fill="#FF0009"/>
</svg>
