<svg id="Camada_1" data-name="Camada 1" xmlns="http://www.w3.org/2000/svg" viewBox="0 0 640 512"><defs><style>.cls-1{fill:#fff;}</style></defs><title>truck</title><path class="cls-1" d="M621.3,237.3l-58.5-58.5a64,64,0,0,0-45.3-18.7H480V64a32,32,0,0,0-32-32H32A32,32,0,0,0,0,64V400a79.8,79.8,0,0,0,144,47.6A79.8,79.8,0,0,0,288,400a84.28,84.28,0,0,0-1.6-16H449.6a76.86,76.86,0,0,0-1.6,16,80,80,0,0,0,160,0,84.28,84.28,0,0,0-1.6-16H624a16,16,0,0,0,16-16V282.5A63.79,63.79,0,0,0,621.3,237.3ZM80,432a32,32,0,1,1,32-32A32.09,32.09,0,0,1,80,432Zm128,0a32,32,0,1,1,32-32A32.09,32.09,0,0,1,208,432ZM480,208h37.5a15.88,15.88,0,0,1,11.3,4.7L572.1,256H480Zm48,224a32,32,0,1,1,32-32A32.09,32.09,0,0,1,528,432Z"/></svg>